<?xml version="1.0" encoding="UTF-8"?>
<svg id="Layer_1" xmlns="http://www.w3.org/2000/svg" version="1.1" xmlns:inkscape="http://www.inkscape.org/namespaces/inkscape" xmlns:sodipodi="http://sodipodi.sourceforge.net/DTD/sodipodi-0.dtd" xmlns:svg="http://www.w3.org/2000/svg" viewBox="0 0 1000 363.16">
  <!-- Generator: Adobe Illustrator 30.1.0, SVG Export Plug-In . SVG Version: 2.1.1 Build 136)  -->
  <defs>
    <style>
      .st0 {
        fill: #fff;
      }
    </style>
  </defs>
  <sodipodi:namedview id="namedview5" bordercolor="#666666" borderopacity="1.0" inkscape:current-layer="Layer_1" inkscape:cx="509" inkscape:cy="198" inkscape:pagecheckerboard="0" inkscape:pageopacity="0.0" inkscape:pageshadow="2" inkscape:window-height="705" inkscape:window-maximized="1" inkscape:window-width="1366" inkscape:window-x="-8" inkscape:window-y="-8" inkscape:zoom="0.5" pagecolor="#ffffff" showgrid="false"/>
  <g id="g5655">
    <path id="path5618" class="st0" d="M827.08,238.42v13.08h172.92v-13.08h-172.92Z"/>
    <path id="path5616" class="st0" d="M0,238.42v13.08h148.11v-13.08H0Z" sodipodi:nodetypes="ccccc"/>
    <path id="path5614" class="st0" d="M473.54,215.86v5.46c7.5-.22,10.06,6.56,10.06,21.86v89.17c0,15.3-2.56,22.07-10.06,21.85v5.46h35.48v-5.46c-7.5.22-9.88-6.56-9.88-21.85v-90.48l54.31,74.74c5.49,7.43,10.79,14.64,10.79,25.13,0,7.43-3.47,11.36-9.33,12.46v5.24h36.76v-5.46c-7.5.22-10.06-6.56-10.06-21.85v-88.95c0-15.3,2.56-22.07,10.06-21.86v-5.46h-36.76v5.46c7.5-.22,11.16,6.56,11.16,21.86v27.54l-20.12-29.5c-2.38-3.28-7.31-9.4-7.31-13.99,0-3.5,2.19-5.03,4.75-5.9v-5.46h-69.86Z"/>
    <path id="path5612" class="st0" d="M409.98,215.86v5.46c7.5-.22,10.06,6.56,10.06,21.86v89.17c0,15.3-2.56,22.07-10.06,21.85v5.46h57.61v-5.46c-7.5.22-10.06-6.56-10.06-21.85v-89.17c0-15.3,2.56-22.07,10.06-21.86v-5.46h-57.61Z"/>
    <path id="path5610" class="st0" d="M270.31,215.86v5.46c7.5-.22,10.06,6.56,10.06,21.86v89.17c0,15.3-2.56,22.07-10.06,21.85v5.46h58.34v-5.46c-8.23-.22-10.79-6.78-10.79-22.95v-61.85h36.39v61.85c0,16.17-2.56,22.73-10.79,22.95v5.46h58.34v-5.46c-7.5.22-10.06-6.56-10.06-21.85v-89.17c0-15.3,2.56-22.07,10.06-21.86v-5.46h-58.34v5.46c7.5-.22,10.79,6.56,10.79,21.86v11.8h-36.39v-11.8c0-15.3,3.29-22.07,10.79-21.86v-5.46h-58.34Z"/>
    <path id="path5608" class="st0" d="M814.86,211.71c-2.56,3.72-7.68,5.25-11.34,5.25-3.84,0-14.81-4.59-33.47-4.59-15.91,0-46.09,8.74-46.09,48.08,0,10.05,4.21,20.11,10.79,26.44,5.67,5.46,14.26,9.18,21.21,11.8l18.47,7.21c7.68,3.06,18.84,6.12,18.84,18.14,0,18.14-14.27,21.63-26.7,21.63-18.95,0-34.56-14.42-40.58-34.87h-5.47l3.44,52.14c2.74-3.28,5.67-5.25,9.88-5.25,3.47,0,8.6,1.31,12.07,2.19,9.14,1.97,16.28,3.28,25.6,3.28,37.49,0,60.53-16.61,60.53-52.88,0-18.36-13.72-33-30.36-38.9l-21.4-7.65c-6.77-2.4-19.02-5.68-19.02-16.61-.55-12.46,11.16-17.27,20.12-17.27,12.18,0,24.36,9.7,31.05,22.15h6.46l-4.04-40.29Z"/>
    <path id="path5606" class="st0" d="M165.04,211.1l-7.7,42.8h4.73c5.63-16.74,17.89-25.91,33.84-26.32v102.73c0,16.26-2.64,23.48-14.93,23.71v5.65h68.59v-5.65c-12.28-.23-14.93-7.45-14.93-23.71v-102.73c16.58,1.21,26.79,10.05,33.36,26.32h5.09l-7.22-42.8h-100.83Z"/>
    <path id="path5604" class="st0" d="M696.16,210.83c-2.38,3.93-6.04,6.12-10.06,6.12-2.74,0-5.49-.65-8.23-1.31-9.33-2.19-14.81-3.28-28.53-3.28-27.78,0-52.17,12.75-62.3,39.56v59.56c4.27,12.51,11.13,23.81,20.06,32,15.54,14.21,34.93,16.17,53.77,16.17h58.89v-5.46c-2.93-1.31-6.03-2.62-7.5-6.12-1.83-4.15-1.65-14.42-1.65-19.23v-25.35c0-11.58-1.46-24.48,11.52-25.35v-5.46h-58.71v5.46c12.07.66,11.16,12.24,11.16,22.95v20.11c0,5.25.18,12.24-2.01,16.83-2.38,5.25-8.05,7.21-12.8,7.21-25.97,0-37.49-35.18-37.49-61.41s9.87-55.07,36.03-55.07c17.92,0,33.1,14.42,39.69,33.87l3.84-.65-5.67-51.14Z"/>
    <path id="path5602" class="st0" d="M231.66,34.78v5.46c7.5-.22,10.06,6.56,10.06,21.85v89.17c0,15.3-2.56,22.07-10.06,21.85v5.46h57.42v-5.46c-7.5.22-10.06-6.56-10.06-21.85v-38.24l6.4-2.62c7.68,10.71,25.97,42.18,25.97,55.51,0,5.9-3.29,6.99-7.5,7.21v5.46h79.36v-5.46c-4.94-.66-8.41-2.84-8.41-9.62,0-4.81,2.19-13.11,3.47-17.7l6.58-22.29c10.24-.66,19.2,2.62,27.61,9.62,7.13,5.68,15.36,16.61,15.36,27.32,0,7.43-4.21,12.24-10.06,12.68v5.46h88.04v-5.46c-7.5.22-9.88-6.56-9.88-21.85V60.78l54.31,74.74c5.49,7.43,10.79,14.64,10.79,25.13,0,7.43-3.48,11.36-9.33,12.46v5.25h36.76v-5.46c-7.5.22-10.06-6.56-10.06-21.86V62.09c0-15.3,2.56-22.07,10.06-21.85v-5.46h-36.76v5.46c7.5-.22,11.16,6.56,11.16,21.85v27.54l-20.12-29.5c-2.38-3.28-7.32-9.4-7.32-13.99,0-3.5,2.2-5.03,4.76-5.9v-5.46h-69.86v5.46c7.5-.22,10.06,6.56,10.06,21.85v89.17c0,10.41-1.19,16.86-4.31,19.86-5.94-4.49-8.17-15.25-10.4-22.71-12.62-44.58-28.53-99.87-28.53-102.71,0-3.72,1.46-5.03,4.21-5.46v-5.46h-53.4v5.46c2.56.44,4.02,2.18,4.02,5.46,0,3.06-2.19,9.18-3.11,11.8l-28.71,90.7c-1.69,4.88-3.47,10.26-5.98,14.82-1.09-2.6-1.95-5.34-2.6-7.83-6.4-23.38-17.01-45.24-30.54-60.76,12.07-7.43,25.97-19.45,25.97-37.59,0-8.74-4.21-15.08-10.61-18.57-6.95-3.28-15-3.28-22.49-3.5h-82.29ZM292.93,49.2c9.14,0,15.36,5.68,15.36,16.83,0,18.58-16.82,27.32-29.26,31.03v-32.34c0-3.28-.37-8.74,1.65-11.36,2.74-3.28,8.59-4.15,12.25-4.15ZM402.1,63.84l13.9,51.8c-7.32-6.12-16.28-10.93-25.42-10.71l11.52-41.09Z"/>
    <path id="path5600" class="st0" d="M827.08,33.94v7.07c9.7-.28,13.01,8.48,13.01,28.27v115.33c0,19.79-3.31,28.55-13.01,28.27v7.07h74.28v-7.07c-9.7.28-13.01-8.48-13.01-28.27v-49.47l8.28-3.39c9.94,13.85,33.59,54.56,33.59,71.8,0,7.63-4.26,9.05-9.7,9.33v7.07h79.48v-7.07c-10.41,0-15.14-13.29-17.74-23.18-8.28-30.25-22-58.52-39.5-78.59,15.61-9.61,33.59-25.16,33.59-48.62,0-11.31-5.44-19.5-13.72-24.03-8.99-4.24-19.4-4.24-29.1-4.52h-106.45ZM906.32,52.59c11.83,0,19.87,7.35,19.87,21.77,0,24.03-21.76,35.34-37.85,40.14v-41.84c0-4.24-.47-11.31,2.13-14.7,3.55-4.24,11.12-5.37,15.85-5.37Z"/>
    <path id="path5592" class="st0" d="M126.72,32.8l-7.66,42.57h4.71c5.59-16.65,17.8-25.77,33.66-26.17v102.17c0,16.17-2.63,23.35-14.84,23.58v5.62h68.21v-5.62c-12.21-.22-14.85-7.41-14.85-23.58V49.19c16.49,1.21,26.64,10,33.17,26.17h5.06l-7.19-42.57h-100.28Z"/>
    <path id="path5590" class="st0" d="M817.13,31.28c-3.47,4.37-10.79,3.5-15.36,3.5h-83.03v5.46c7.5-.22,10.06,6.56,10.06,21.85v89.17c0,15.3-2.56,22.07-10.06,21.85v5.46h90.71c2.01,0,4.02,0,5.85.44,2.01.22,3.66,1.09,5.12,3.06l15.54-56.82-3.84-1.75c-9.69,23.82-24.69,40.65-48.1,40.65-14.45,0-17.74-5.68-17.74-20.54v-47.43h4.94c9.14,0,16.82-.87,23.96,6.99,1.34,1.45,2.55,3.06,3.66,4.77l7.25-.87-5.46-37.7h-4.88c-2.01,13.56-12.79,12.38-23.6,12.38h-5.85v-6.99c0-17.48-1.1-25.57,16.83-25.57s34.01,12.68,39.32,33.88l4.02-1.53-9.33-50.26Z"/>
    <path id="path5588" class="st0" d="M693,29.75c-2.38,3.93-6.03,6.12-10.06,6.12-2.74,0-5.49-.65-8.23-1.31-9.33-2.19-14.81-3.28-28.53-3.28-27.78,0-52.17,12.75-62.3,39.57v59.56c4.27,12.51,11.13,23.81,20.06,32,15.54,14.21,34.93,16.17,53.77,16.17h58.89v-5.46c-2.93-1.31-6.04-2.62-7.5-6.12-1.83-4.15-1.64-14.42-1.64-19.23v-25.35c0-11.58-1.46-24.48,11.52-25.35v-5.46h-58.71v5.46c12.07.66,11.16,12.24,11.16,22.95v20.11c0,5.25.18,12.24-2.01,16.83-2.38,5.25-8.05,7.21-12.8,7.21-25.97,0-37.49-35.19-37.49-61.41s9.88-55.07,36.03-55.07c17.92,0,33.1,14.42,39.68,33.87l3.84-.65-5.67-51.14Z"/>
    <path id="path5586" class="st0" d="M59.14,25.83C38.59,25.83.02,36.7,0,86.42c-.01,29.92,16.2,42.13,40.72,51.46l23.86,9.31c9.92,3.95,24.33,7.7,24.33,23.22,0,23.43-17.81,27.64-33.87,27.64-23.69,0-35.89-18.73-43.51-42.26H3.55L0,220.67c3.54-4.23,7.32-6.46,12.76-6.46,4.49,0,11.1,1.69,15.59,2.82,11.81,2.54,21.02,4.23,33.07,4.23,48.42,0,78.19-21.76,78.19-68.62,0-23.71-17.72-42.63-39.21-50.25l-27.64-9.88c-8.74-3.11-24.24-7.34-24.57-21.46-.38-16.1,14.41-22.3,25.98-22.3,15.73,0,31.77,13.86,40.41,29.95l8.26-45.95s-2.61,2.03-9.83,1.05c-8.15-1.1-19.95-7.98-53.89-7.98Z"/>
    <path id="path40713" class="st0" d="M0,0v13.08h975.97V0H0Z" sodipodi:nodetypes="ccccc"/>
  </g>
</svg>