<?xml version="1.0" encoding="UTF-8"?>
<svg id="Capa_1" xmlns="http://www.w3.org/2000/svg" version="1.1" viewBox="0 0 1024 276.74">
  <!-- Generator: Adobe Illustrator 30.1.0, SVG Export Plug-In . SVG Version: 2.1.1 Build 136)  -->
  <defs>
    <style>
      .st0 {
        fill: #fff;
      }
    </style>
  </defs>
  <path class="st0" d="M140.8,258.9c-15.4,2.7-31.08,3.52-47.29,5.68L44.05,119.72v151.07C28.65,272.42,14.59,274.58,0,276.74V0h41.08l56.21,157.02V0h43.51v258.9h0ZM225.93,101.35c16.76,0,42.43-.81,57.83-.81v43.24c-19.19,0-41.62,0-57.83.81v64.32c25.4-1.62,50.81-3.79,76.48-4.6v41.62l-119.72,9.46V0h119.72v43.24h-76.48s0,58.1,0,58.1ZM463.22,43.24h-44.86v198.91c-14.59,0-29.19,0-43.24.54V43.24h-44.86V0h132.96s0,43.24,0,43.24ZM533.48,98.37h59.19v43.24h-59.19v98.1h-42.43V0h120.81v43.24h-78.38v55.13ZM682.12,201.88c24.59.54,49.46,2.43,73.51,3.78v42.7c-38.65-2.43-77.29-4.86-116.75-5.68V0h43.24v201.88h0ZM792.12,251.34c13.78.81,28.38,1.62,42.43,3.24V0h-42.43v251.34ZM1024,0l-54.86,131.62,54.86,145.13c-16.22-2.16-32.43-5.14-48.65-7.84l-31.08-79.99-31.62,73.51c-15.68-2.7-30.81-3.52-46.48-5.68l55.67-126.75L871.58,0h46.48l28.38,72.7L976.71,0h47.29Z"/>
</svg>